<?xml version="1.0" encoding="UTF-8"?>
<svg id="Camada_1" data-name="Camada 1" xmlns="http://www.w3.org/2000/svg" viewBox="0 0 393.48 123.09">
  <defs>
    <style>
      .cls-1 {
        fill: #1a1740;
        stroke-width: 0px;
      }
    </style>
  </defs>
  <g>
    <path class="cls-1" d="m70.36,17l-24,27.33c-.62.71-.55,1.79.16,2.42l27.34,24c.71.62,1.79.55,2.42-.16l24-27.33c.62-.71.55-1.79-.16-2.42l-27.34-24c-.71-.62-1.79-.55-2.42.16Zm-1.37,31.37c-2.36-2.23-2.61-6.01-.56-8.53,2.26-2.79,6.38-3.12,9.05-.77,2.61,2.29,2.88,6.27.58,8.88-2.35,2.67-6.46,2.88-9.06.42Z"/>
    <path class="cls-1" d="m109.71.09c1.25-.42,2.49.66,2.23,1.96l-3.31,16.61-3.31,16.61c-.26,1.29-1.82,1.82-2.81.95l-12.73-11.17-12.73-11.17c-.99-.87-.67-2.49.58-2.91l16.04-5.43L109.71.09Z"/>
    <path class="cls-1" d="m19.56,85.35c5.05-5.58,13.57-6.21,19.23-1.25.12.1.23.21.35.31,9.12,8.57,1.97,24.28-10.39,22.31-.11-.02-.23-.04-.35-.06-5.49-.98-8.27,1.93-9.27,4.78-.44,1.25-2.18,1.38-2.77.2-1.39-2.78-2.2-7.2,1.6-12.69.81-1.17-.29-2.71-1.65-2.3-.01,0-.02,0-.03.01-1.2.37-2.31-.75-1.89-1.94,1.04-2.91,2.73-6.68,5.16-9.37Z"/>
    <g>
      <path class="cls-1" d="m64.53,86.87c.78-.19,1.55.28,1.79,1.05,2.4,7.62,1.41,16.2-3.42,23.33-4.9,7.23-12.68,11.34-20.79,11.84-1.22.07-2.02-1.25-1.4-2.29l10.87-18.39c.24-.41.28-.9.1-1.34l-5.01-12.35c-.47-1.16.59-2.36,1.8-2.03,5.3,1.43,10.83,1.46,16.05.19Z"/>
      <path class="cls-1" d="m32.39,59.51c.07-.8-.52-1.49-1.31-1.61-7.9-1.18-16.22,1.14-22.51,7.02C2.19,70.9-.65,79.23.13,87.31c.12,1.21,1.55,1.8,2.49,1.03l16.46-13.61c.37-.3.85-.42,1.31-.31l12.98,3.01c1.22.28,2.24-.95,1.73-2.09-2.24-5.01-3.14-10.47-2.7-15.82Z"/>
    </g>
    <path class="cls-1" d="m43.19,51.14c-.75-.66-1.92-.55-2.51.26-5.98,8.22-4.81,19.79,2.98,26.63,7.79,6.84,19.42,6.5,26.79-.49.72-.69.68-1.86-.07-2.52l-27.2-23.88Z"/>
  </g>
  <g>
    <g>
      <path class="cls-1" d="m140.88,80.31c-2.17,0-3.73-.33-4.67-1-.95-.67-1.52-1.53-1.71-2.59-.2-1.06-.29-2.14-.29-3.25V28.66c0-1.11.11-2.18.33-3.21.22-1.03.81-1.86,1.75-2.5.95-.64,2.5-.96,4.67-.96h17.02c2.23,0,4.53.42,6.93,1.25,2.39.84,4.63,2.13,6.72,3.88,2.09,1.75,3.77,3.92,5.05,6.51,1.28,2.59,1.92,5.66,1.92,9.22s-.64,6.47-1.92,9.05c-1.28,2.59-2.96,4.74-5.05,6.47-2.09,1.73-4.33,3.02-6.72,3.88-2.39.86-4.73,1.29-7.01,1.29h-10.26v10.01c0,1.11-.1,2.18-.29,3.21-.2,1.03-.77,1.88-1.71,2.54-.95.67-2.53,1-4.76,1Zm6.76-30.29h10.35c1.06,0,2.14-.24,3.26-.71,1.11-.47,2.06-1.25,2.84-2.34.78-1.08,1.17-2.49,1.17-4.21,0-1.45-.32-2.73-.96-3.84-.64-1.11-1.52-1.97-2.63-2.59-1.11-.61-2.37-.92-3.76-.92h-10.26v14.6Z"/>
      <path class="cls-1" d="m191.12,33c-2.23,0-3.81-.33-4.76-1-.95-.67-1.52-1.53-1.71-2.59-.2-1.06-.29-2.14-.29-3.26,0-1.22.11-2.34.33-3.34.22-1,.81-1.82,1.75-2.46.95-.64,2.53-.96,4.76-.96s3.73.33,4.67,1c.95.67,1.53,1.52,1.75,2.54.22,1.03.33,2.13.33,3.3s-.11,2.27-.33,3.3c-.22,1.03-.81,1.86-1.75,2.5-.95.64-2.53.96-4.76.96Zm0,47.32c-2.17,0-3.73-.32-4.67-.96-.95-.64-1.5-1.47-1.67-2.5s-.25-2.1-.25-3.21v-28.54c0-1.11.1-2.17.29-3.17.19-1,.76-1.82,1.71-2.46.95-.64,2.5-.96,4.67-.96s3.71.32,4.63.96c.92.64,1.47,1.47,1.67,2.5.19,1.03.29,2.13.29,3.3v28.46c0,1.11-.1,2.18-.29,3.21-.2,1.03-.75,1.85-1.67,2.46-.92.61-2.49.92-4.72.92Z"/>
      <path class="cls-1" d="m233.76,80.98c-2.34,0-4.85-.36-7.55-1.08-2.7-.72-5.38-1.86-8.05-3.42-2.67-1.56-5.08-3.53-7.22-5.92-2.14-2.39-3.87-5.23-5.17-8.51-1.31-3.28-1.96-7.04-1.96-11.27s.65-7.76,1.96-10.93c1.31-3.17,3.03-5.93,5.17-8.26,2.14-2.34,4.53-4.26,7.18-5.76,2.64-1.5,5.34-2.61,8.09-3.34,2.75-.72,5.35-1.08,7.8-1.08,2.84,0,5.31.33,7.43,1,2.11.67,3.84,1.36,5.17,2.09,1.34.72,2.2,1.2,2.59,1.42,1.06.67,2.03,1.41,2.92,2.21.89.81,1.36,1.88,1.42,3.21,0,.67-.14,1.35-.42,2.04-.28.7-.67,1.41-1.17,2.13-1,1.34-1.93,2.32-2.8,2.96-.86.64-1.71.96-2.55.96-.67,0-1.31-.17-1.92-.5-.61-.33-1.36-.78-2.25-1.34-.39-.28-.93-.61-1.63-1-.7-.39-1.64-.76-2.84-1.13-1.2-.36-2.71-.54-4.55-.54s-3.62.32-5.51.96c-1.89.64-3.64,1.63-5.26,2.96-1.61,1.34-2.91,3.02-3.88,5.05-.97,2.03-1.46,4.47-1.46,7.3s.5,5.27,1.5,7.3c1,2.03,2.31,3.7,3.92,5.01,1.61,1.31,3.37,2.28,5.26,2.92,1.89.64,3.7.96,5.42.96,1.61,0,2.99-.14,4.13-.42,1.14-.28,2.14-.65,3-1.13.86-.47,1.6-.9,2.21-1.29.61-.44,1.25-.83,1.92-1.17.67-.33,1.34-.5,2-.5.84,0,1.67.33,2.5,1,.84.67,1.72,1.7,2.67,3.09.5.84.89,1.61,1.17,2.34.28.72.42,1.39.42,2,0,1.28-.46,2.31-1.38,3.09-.92.78-1.91,1.47-2.96,2.09-.39.22-1.22.71-2.5,1.46-1.28.75-2.99,1.45-5.13,2.09-2.14.64-4.72.96-7.72.96Z"/>
      <path class="cls-1" d="m279.32,80.98c-2.62,0-5.22-.51-7.8-1.54-2.59-1.03-4.95-2.49-7.09-4.38-2.14-1.89-3.84-4.17-5.09-6.84-1.25-2.67-1.88-5.62-1.88-8.85,0-3,.57-5.83,1.71-8.47,1.14-2.64,2.71-4.97,4.72-6.97,2-2,4.3-3.57,6.88-4.72,2.59-1.14,5.38-1.71,8.39-1.71,4.01,0,7.65.97,10.93,2.92,3.28,1.95,5.91,4.56,7.89,7.85,1.97,3.28,2.96,6.96,2.96,11.01,0,3.39-.64,6.43-1.92,9.1-1.28,2.67-2.98,4.95-5.09,6.84-2.11,1.89-4.45,3.32-7.01,4.3-2.56.97-5.09,1.46-7.59,1.46Zm-.17-13.35c1.17,0,2.41-.29,3.71-.88,1.31-.58,2.41-1.5,3.3-2.75.89-1.25,1.34-2.85,1.34-4.8,0-1.67-.36-3.13-1.08-4.38-.72-1.25-1.73-2.21-3-2.88-1.28-.67-2.73-1-4.34-1s-2.95.36-4.17,1.08c-1.22.72-2.21,1.71-2.96,2.96-.75,1.25-1.13,2.69-1.13,4.3,0,1.89.44,3.46,1.34,4.72.89,1.25,1.97,2.17,3.25,2.75,1.28.58,2.53.88,3.76.88Z"/>
      <path class="cls-1" d="m346.41,22.82c-.22-1-.77-1.82-1.66-2.46s-2.45-.96-4.68-.96-3.7.33-4.59,1-1.4,1.5-1.54,2.5-.21,2.09-.21,3.26v15.83c-.81-.73-1.71-1.36-2.67-1.9-2-1.11-4.34-1.67-7.01-1.67-2.45,0-4.83.58-7.14,1.71-2.3,1.15-4.36,2.69-6.17,4.64-1.81,1.94-3.23,4.16-4.26,6.63-1.03,2.48-1.54,5.08-1.54,7.8s.51,5.53,1.54,8.06c1.03,2.53,2.44,4.77,4.22,6.71,1.78,1.95,3.82,3.48,6.13,4.59,2.31,1.12,4.72,1.67,7.22,1.67,2.78,0,5.19-.58,7.22-1.75.92-.53,1.76-1.14,2.53-1.83.35,1.21.98,2.11,1.89,2.71.97.64,2.46.96,4.47.96,2.17,0,3.71-.34,4.63-1,.92-.67,1.47-1.52,1.67-2.55.19-1.03.29-2.1.29-3.21V26.07c0-1.17-.11-2.25-.34-3.25Zm-14.14,40.39c-.7,1.17-1.6,2.1-2.71,2.8-1.12.69-2.34,1.04-3.67,1.04-1.4,0-2.67-.35-3.84-1.04-1.17-.7-2.09-1.63-2.76-2.8-.66-1.17-1-2.45-1-3.84s.32-2.75.96-3.92c.64-1.17,1.55-2.09,2.71-2.76,1.17-.66,2.45-1,3.84-1s2.73.35,3.84,1.05c1.11.69,2,1.61,2.67,2.75.67,1.14,1,2.43,1,3.88s-.34,2.67-1.04,3.84Z"/>
      <path class="cls-1" d="m374.54,81.15c-4.01,0-7.43-.65-10.26-1.96-2.84-1.31-5.15-3.03-6.93-5.17-1.78-2.14-3.1-4.48-3.96-7.01-.86-2.53-1.29-5.05-1.29-7.55,0-4.28.96-8.05,2.88-11.31,1.92-3.25,4.56-5.81,7.93-7.68,3.37-1.86,7.25-2.8,11.64-2.8,3.28,0,6.12.53,8.51,1.58,2.39,1.06,4.35,2.42,5.88,4.09,1.53,1.67,2.67,3.45,3.42,5.34.75,1.89,1.13,3.7,1.13,5.42,0,3.06-.75,5.37-2.25,6.93-1.5,1.56-3.42,2.34-5.76,2.34h-19.28c.17,1.22.68,2.3,1.54,3.21.86.92,1.93,1.63,3.21,2.13,1.28.5,2.64.75,4.09.75,1.28,0,2.42-.08,3.42-.25s1.86-.36,2.59-.58c.72-.22,1.38-.46,1.96-.71.58-.25,1.11-.46,1.59-.63.47-.17.93-.25,1.38-.25.89-.05,1.71.2,2.46.75.75.56,1.4,1.42,1.96,2.59.39.67.67,1.29.83,1.88s.25,1.13.25,1.63c0,1.5-.68,2.78-2.04,3.84-1.36,1.06-3.3,1.89-5.8,2.5-2.5.61-5.54.92-9.1.92Zm-8.35-24.95h12.1c.83,0,1.45-.17,1.84-.5.39-.33.58-.89.58-1.67,0-.89-.26-1.68-.79-2.38s-1.27-1.22-2.21-1.59c-.95-.36-2.06-.54-3.34-.54-1.56,0-2.96.31-4.21.92-1.25.61-2.21,1.43-2.88,2.46-.67,1.03-1.03,2.13-1.08,3.3Z"/>
    </g>
    <path class="cls-1" d="m386.8,11.88c1.15,0,2.15.13,2.99.4.84.27,1.53.67,2.08,1.23.55.55.95,1.26,1.22,2.11.26.86.4,1.88.4,3.06s-.13,2.2-.4,3.05c-.27.85-.67,1.55-1.22,2.09-.55.55-1.24.95-2.07,1.2-.83.26-1.81.39-2.93.39s-2.15-.13-3-.39c-.85-.26-1.55-.66-2.09-1.2s-.95-1.24-1.23-2.08c-.27-.84-.41-1.84-.41-3.01s.13-2.23.4-3.09c.27-.86.67-1.57,1.22-2.13.55-.55,1.24-.96,2.08-1.23.84-.27,1.83-.4,2.97-.4Zm.02,11.84c.88,0,1.64-.09,2.27-.28.64-.19,1.16-.49,1.56-.9.4-.41.7-.93.89-1.57.19-.64.28-1.41.28-2.32s-.09-1.73-.28-2.38c-.19-.64-.49-1.17-.89-1.57-.4-.4-.92-.69-1.55-.88-.63-.18-1.39-.27-2.28-.27s-1.68.09-2.31.27c-.63.18-1.14.48-1.53.89-.39.41-.69.94-.88,1.59-.19.65-.28,1.45-.28,2.39s.09,1.71.28,2.35c.19.64.49,1.16.9,1.56.41.39.93.68,1.56.85.63.17,1.38.26,2.26.26Zm2.25-4.21l1.11,2.25c.08.15.07.3-.01.43-.08.14-.21.25-.37.35-.17.1-.35.16-.55.19-.17.03-.32,0-.45-.08-.14-.08-.25-.21-.34-.37l-1.09-2.11h-1.55v1.68c0,.14-.02.27-.06.41-.04.14-.12.25-.25.34s-.33.14-.6.14c-.26,0-.45-.05-.59-.14s-.22-.21-.26-.35c-.04-.14-.06-.28-.06-.4v-6.66c0-.2.03-.35.1-.47s.18-.2.34-.25.35-.08.58-.08h2.16c.61,0,1.13.12,1.56.35s.77.57,1.01,1.01c.24.44.36.95.36,1.55,0,.39-.08.8-.25,1.2-.17.41-.43.74-.8,1Zm-3.25-3.32v2.16h1.55c.29,0,.52-.09.69-.28.17-.19.26-.44.26-.76,0-.36-.1-.64-.3-.83-.2-.19-.48-.28-.84-.28h-1.36Z"/>
    <g>
      <path class="cls-1" d="m136.21,114.99c-.43,0-.75-.06-.95-.18-.2-.12-.34-.29-.4-.52s-.1-.49-.1-.79v-19.6c0-.54.11-.91.34-1.13.23-.21.63-.32,1.21-.32h12.98c.3,0,.56.03.78.1.21.06.38.2.48.42.11.22.16.54.16.97s-.06.75-.18.95c-.12.2-.29.34-.5.4-.22.06-.47.1-.78.1h-11.59v6.68h8.07c.3,0,.55.03.76.1.2.06.36.19.47.39.11.19.16.5.16.9s-.05.68-.16.87c-.11.19-.27.32-.5.37-.23.05-.49.08-.79.08h-8.01v7.3h11.62c.3,0,.56.03.78.1.21.06.38.2.48.4.11.2.16.52.16.95s-.06.75-.18.95c-.12.2-.29.34-.5.4-.22.06-.47.1-.78.1h-13.04Z"/>
      <path class="cls-1" d="m165.62,114.99c-.37,0-.66-.06-.87-.19-.22-.13-.36-.31-.44-.53s-.11-.48-.11-.76v-19.63c0-.28.04-.53.11-.74.08-.21.22-.39.44-.52.21-.13.52-.19.9-.19l6.36.03c1.59,0,3.04.26,4.34.79,1.3.53,2.42,1.28,3.34,2.24.92.97,1.64,2.14,2.13,3.52.49,1.38.74,2.91.74,4.58s-.25,3.31-.76,4.71c-.51,1.4-1.22,2.59-2.15,3.58-.93.99-2.05,1.75-3.36,2.29-1.31.54-2.78.81-4.39.81h-6.3Zm1.49-2.94h4.91c1.57,0,2.93-.34,4.07-1.02,1.14-.68,2.02-1.64,2.63-2.87.61-1.24.92-2.71.92-4.41s-.31-3.21-.92-4.46c-.61-1.25-1.5-2.21-2.65-2.89-1.15-.68-2.51-1.02-4.08-1.02h-4.87v16.66Z"/>
      <path class="cls-1" d="m205.59,115.09c-1.44,0-2.73-.25-3.87-.76-1.14-.51-2.1-1.22-2.87-2.13-.78-.91-1.37-2-1.78-3.26-.41-1.26-.61-2.63-.61-4.12v-10.91c0-.3.04-.56.11-.77.08-.21.22-.38.42-.5.2-.12.52-.18.95-.18s.75.06.97.18c.21.12.36.29.42.5.06.22.1.48.1.81v10.88c0,1.44.24,2.71.71,3.81.47,1.1,1.17,1.96,2.1,2.6.92.64,2.08.95,3.45.95,1.29,0,2.4-.3,3.33-.9.92-.6,1.64-1.45,2.13-2.55s.74-2.41.74-3.94v-11.04c0-.28.04-.51.11-.69s.22-.33.44-.44c.21-.11.53-.16.94-.16.43,0,.75.06.95.18.2.12.34.29.4.52s.1.49.1.79v10.94c0,1.51-.2,2.88-.61,4.12-.41,1.24-1.01,2.31-1.81,3.23-.8.92-1.77,1.62-2.91,2.11-1.14.49-2.44.74-3.91.74Z"/>
      <path class="cls-1" d="m239.71,115.06c-1.16,0-2.29-.17-3.39-.5-1.1-.33-2.13-.83-3.08-1.48-.96-.66-1.79-1.46-2.5-2.4-.71-.95-1.27-2.02-1.68-3.23-.41-1.2-.61-2.52-.61-3.94s.2-2.68.61-3.86c.41-1.17.97-2.21,1.68-3.12.71-.9,1.54-1.67,2.5-2.31.96-.63,1.99-1.12,3.08-1.45s2.24-.5,3.42-.5c1.08,0,2,.11,2.78.32.77.22,1.4.45,1.89.71s.82.44,1.02.55c.3.19.59.41.87.65s.43.51.45.81c.04.24.03.44-.05.6-.08.16-.17.32-.27.47-.17.26-.36.45-.55.57s-.39.18-.58.18c-.22,0-.41-.06-.6-.19s-.4-.28-.66-.45c-.13-.09-.39-.23-.77-.42s-.89-.38-1.5-.55c-.61-.17-1.34-.26-2.18-.26-1.1,0-2.15.19-3.15.58-1,.39-1.88.95-2.63,1.68-.75.73-1.35,1.61-1.78,2.65-.43,1.03-.65,2.21-.65,3.52s.22,2.46.65,3.5c.43,1.04,1.03,1.93,1.79,2.66.76.73,1.64,1.29,2.63,1.68.99.39,2.03.58,3.13.58.82,0,1.53-.09,2.13-.26.6-.17,1.11-.36,1.52-.57.41-.2.69-.36.84-.47.24-.13.45-.26.63-.39s.38-.19.6-.19.41.06.6.18c.18.12.36.31.53.57.11.15.19.32.26.5.06.18.09.38.06.6-.02.32-.18.6-.47.82s-.59.44-.89.63c-.17.09-.5.26-.98.53-.48.27-1.11.51-1.89.71-.77.2-1.71.31-2.81.31Z"/>
      <path class="cls-1" d="m280.09,112.93l-9.36-19.56c-.08-.22-.19-.39-.32-.52s-.28-.22-.45-.29c-.17-.06-.36-.1-.55-.1-.28,0-.55.08-.79.25-.25.16-.44.37-.57.63l-9.26,19.33c-.17.37-.28.69-.32.97-.05.28.01.52.16.71.15.19.38.36.71.49.53.23.95.29,1.24.16.29-.13.55-.44.79-.94l2.57-5.49h10.92l2.59,5.52c.23.5.5.82.79.96.29.13.69.08,1.21-.18.32-.15.56-.32.71-.5.15-.19.22-.39.21-.62-.01-.22-.1-.5-.28-.82Zm-15-6.84l4.29-9.17,4.31,9.17h-8.6Z"/>
      <path class="cls-1" d="m309.38,92.46c.28,0,.52.03.71.1s.34.19.44.39.14.48.14.87-.05.68-.16.87-.26.32-.45.37c-.19.05-.43.08-.71.08h-6.68v18.43c0,.28-.04.53-.11.74s-.22.38-.42.5c-.2.12-.52.18-.95.18s-.72-.06-.92-.18c-.2-.12-.34-.29-.4-.52s-.1-.48-.1-.76v-18.4h-6.75c-.28,0-.52-.03-.71-.08-.19-.05-.35-.18-.47-.37-.12-.19-.18-.48-.18-.87s.05-.68.16-.87.26-.32.47-.39c.2-.06.44-.1.69-.1h16.4Z"/>
      <path class="cls-1" d="m325.07,114.99c-.43,0-.75-.06-.95-.18-.2-.12-.34-.29-.4-.52s-.1-.49-.1-.79v-19.6c0-.28.04-.53.11-.76s.22-.4.42-.52c.2-.12.52-.18.95-.18s.75.06.95.18c.2.12.33.29.39.52.05.23.08.49.08.79v19.6c0,.3-.03.56-.1.77s-.2.38-.4.5c-.2.12-.52.18-.95.18Z"/>
      <path class="cls-1" d="m350.25,115.22c-1.53,0-2.96-.29-4.31-.87-1.35-.58-2.53-1.39-3.57-2.44-1.03-1.04-1.83-2.24-2.4-3.6s-.86-2.82-.86-4.39.28-3.09.84-4.5c.56-1.41,1.34-2.64,2.34-3.7,1-1.05,2.16-1.88,3.47-2.49,1.31-.6,2.71-.9,4.2-.9s3,.29,4.34.87c1.34.58,2.52,1.4,3.53,2.45,1.01,1.05,1.8,2.28,2.37,3.66.57,1.39.86,2.89.86,4.5s-.29,3.01-.86,4.39c-.57,1.38-1.35,2.59-2.34,3.65-.99,1.05-2.14,1.88-3.44,2.47-1.3.59-2.7.89-4.18.89Zm-.19-2.94c1.12,0,2.17-.21,3.15-.65.98-.43,1.83-1.04,2.57-1.82.73-.79,1.31-1.69,1.73-2.73.42-1.03.63-2.14.63-3.33s-.21-2.25-.63-3.28c-.42-1.02-1-1.93-1.74-2.71-.74-.79-1.6-1.4-2.57-1.84-.97-.44-2-.66-3.1-.66s-2.13.22-3.1.66c-.97.44-1.82,1.05-2.57,1.82-.74.77-1.32,1.68-1.74,2.71-.42,1.03-.63,2.14-.63,3.33s.22,2.26.65,3.29c.43,1.03,1.01,1.94,1.74,2.71.73.78,1.58,1.38,2.53,1.82s1.99.66,3.08.66Z"/>
      <path class="cls-1" d="m375.04,114.99c-.39,0-.68-.06-.87-.19s-.33-.31-.4-.53-.11-.49-.11-.79v-19.66c0-.26.04-.49.13-.69.09-.2.24-.37.47-.48.23-.12.54-.18.95-.18.47,0,.81.04,1,.13.19.09.39.24.58.45l12.14,17.17v-16.4c0-.26.04-.49.11-.69.08-.2.22-.37.44-.48.21-.12.53-.18.94-.18.39,0,.68.06.89.19.2.13.34.31.42.53.08.23.11.49.11.79v19.53c0,.28-.05.53-.14.76s-.26.4-.5.53-.56.19-.97.19c-.34,0-.62-.04-.84-.13-.22-.09-.42-.25-.61-.48l-12.2-17.05v16.17c0,.28-.04.53-.13.76-.09.23-.24.4-.45.53s-.53.19-.94.19Z"/>
    </g>
  </g>
</svg>